<?xml version="1.0" encoding="UTF-8" standalone="no"?>
<!DOCTYPE svg PUBLIC "-//W3C//DTD SVG 1.1//EN" "http://www.w3.org/Graphics/SVG/1.1/DTD/svg11.dtd">
<svg width="100%" height="100%" viewBox="0 0 1000 1000" version="1.1" xmlns="http://www.w3.org/2000/svg" xmlns:xlink="http://www.w3.org/1999/xlink" xml:space="preserve" xmlns:serif="http://www.serif.com/" style="fill-rule:evenodd;clip-rule:evenodd;stroke-linejoin:round;stroke-miterlimit:2;">
    <g transform="matrix(6.84509,0,0,6.84509,-1371.24,-1324.98)">
        <path d="M229.5,230.5L211.5,230.5L211.5,289L229.5,289L229.5,266L235.5,266L235.5,277L246.5,277L246.5,266L252.5,266L252.5,289L270.5,289L270.5,230.5L252.5,230.5L252.5,242L246.5,242L246.5,253.5L235.5,253.5L235.5,242L229.5,242L229.5,230.5Z" style="fill-rule:nonzero;"/>
    </g>
    <g transform="matrix(6.84509,0,0,6.84509,-1371.24,-1324.98)">
        <path d="M311,230.5L275.5,230.5L275.5,242.5L298.5,242.5L298.5,254L275.5,254L275.5,266L298.5,266L298.5,277L275.5,277L275.5,289L311,289L311,283.5L317,283.5L317,258.5L311,258.5L311,254L317,254L317,235.5L311,235.5L311,230.5Z" style="fill-rule:nonzero;"/>
    </g>
    <g transform="matrix(1.9004,0,0,1.9004,-1467.81,201.668)">
        <path d="M1145.44,220.154C1146.68,219.978 1147.38,220.33 1148.09,220.858C1148.26,218.922 1147.73,216.81 1148.09,215.226C1148.09,214.874 1149.67,213.994 1149.85,213.466C1150.2,212.41 1149.32,210.826 1149.85,209.594C1149.85,209.594 1149.85,209.418 1150.02,209.418C1150.02,209.066 1149.85,208.538 1150.02,208.186C1150.02,208.186 1150.37,208.01 1150.55,207.834L1150.2,209.242C1150.55,209.066 1151.25,209.066 1151.43,208.714C1151.61,208.362 1151.43,207.834 1151.43,207.306L1151.96,206.602C1152.66,205.018 1152.13,203.258 1152.84,201.85L1153.72,200.97C1154.77,199.562 1153.89,198.154 1154.6,196.218C1154.6,195.866 1156.01,195.69 1156.01,195.338C1156.88,192.698 1155.12,189.178 1157.94,186.538C1157.24,186.714 1156.71,186.538 1156.53,186.362C1157.24,184.954 1157.94,183.546 1158.64,182.842C1159.17,182.49 1158.47,181.258 1158.64,180.73C1159.17,180.378 1160.4,180.554 1160.58,179.85C1161.46,178.618 1161.11,176.154 1161.64,174.218C1161.64,174.218 1162.52,174.394 1162.87,174.218C1162.87,174.042 1162.52,172.986 1162.87,172.634C1163.92,169.114 1163.75,164.186 1163.57,159.434C1169.91,159.61 1176.95,157.146 1183.99,156.618C1186.63,156.442 1188.92,156.794 1191.56,156.618C1192.79,156.442 1192.79,155.738 1194.55,155.738C1208.63,154.858 1222.18,156.442 1235.03,157.498C1235.91,155.21 1237.14,152.746 1237.14,149.05C1235.73,148.874 1235.91,147.114 1235.03,146.586C1234.15,145.53 1232.04,146.234 1232.21,144.474C1232.21,143.066 1231.51,141.834 1230.28,141.658C1229.22,141.658 1229.75,141.306 1229.22,140.954C1227.99,139.37 1227.11,138.138 1225.53,137.962C1223.41,137.962 1222.53,135.498 1221.65,134.266C1218.66,134.97 1218.84,132.682 1215.85,133.21C1214.44,130.218 1210.74,129.514 1208.98,126.698C1204.58,127.578 1201.59,125.818 1200.53,125.642C1200.53,125.642 1200.01,126.698 1199.3,126.698C1198.77,126.874 1199.3,125.466 1198.25,126.698C1197.19,128.282 1192.26,124.762 1191.56,127.578C1193.32,127.05 1193.32,132.154 1191.56,131.274L1191.56,127.578C1190.33,127.754 1188.92,127.578 1187.86,127.578C1184.34,127.93 1184.69,128.634 1183.99,127.578C1183.29,127.05 1178.53,127.578 1178.18,127.578C1175.72,127.578 1173.25,126.874 1171.32,128.634C1172.37,128.634 1172.55,130.218 1171.32,130.57C1171.49,128.458 1170.44,128.634 1168.5,128.634C1166.21,128.458 1163.57,129.514 1160.58,129.69C1154.95,129.866 1151.78,130.394 1147.03,130.57C1146.85,131.45 1147.2,133.21 1146.33,133.21C1146.33,131.274 1145.27,131.45 1143.16,131.274C1141.4,131.274 1138.76,133.034 1138.58,133.21C1138.05,133.738 1137,132.506 1137.53,132.33C1136.47,132.858 1136.47,133.562 1135.41,134.266C1132.95,131.802 1127.85,134.09 1126.79,135.322C1125.56,136.73 1122.21,135.322 1122.04,135.322C1117.99,134.266 1122.21,136.73 1122.04,136.906C1117.11,134.266 1110.6,139.37 1107.61,137.962C1107.78,143.066 1106.73,138.666 1105.49,138.842C1105.14,139.018 1105.67,141.13 1104.61,140.954C1103.2,140.954 1103.73,142.362 1102.68,142.538C1102.68,141.306 1103.2,140.426 1103.56,139.722C1099.33,139.722 1097.92,142.362 1092.82,141.658C1092.12,144.474 1094.58,145.178 1095.11,145.354C1095.29,145.53 1095.11,147.114 1095.11,147.29C1095.29,150.634 1095.29,149.754 1097.05,150.986C1097.22,151.162 1096.52,152.57 1097.05,152.922C1097.05,153.098 1097.75,152.922 1097.75,152.922C1099.33,153.978 1097.57,156.442 1099.68,156.618C1101.27,156.618 1101.62,159.258 1101.8,160.314C1105.49,160.314 1106.9,162.954 1108.49,164.186C1109.01,164.538 1109.72,165.418 1110.42,165.946C1115.88,168.41 1123.62,162.954 1126.79,167.882C1126.09,170.522 1125.38,173.162 1122.92,174.218C1122.57,177.738 1121.16,180.554 1120.1,183.722C1119.57,184.778 1119.75,186.362 1119.92,188.122L1119.57,188.122C1119.22,189.354 1119.92,189.882 1120.28,190.586L1120.28,191.466C1120.1,191.642 1118.69,192.874 1118.69,193.05C1118.52,193.93 1119.57,194.986 1119.57,195.338C1119.4,195.69 1117.81,195.866 1117.64,196.218C1117.29,196.922 1117.64,198.33 1116.93,198.682C1117.29,199.21 1117.99,199.738 1118.52,200.09L1117.99,201.498C1117.64,201.322 1117.11,200.97 1116.05,200.97C1115.7,204.314 1114.12,202.378 1116.58,205.546C1113.06,203.434 1114.47,211.882 1112.36,213.466C1113.41,213.642 1114.64,213.466 1114.64,214.522C1112.53,214.346 1113.06,215.754 1111.48,214.522C1112.01,216.81 1109.89,216.634 1110.6,219.098C1111.3,219.274 1112.36,219.098 1112.36,220.154C1111.65,219.45 1111.48,220.682 1111.48,220.858C1110.95,220.858 1109.72,219.978 1109.72,220.154C1109.19,220.506 1109.54,224.026 1108.66,226.314C1108.66,226.49 1107.96,226.314 1107.96,226.314C1107.61,226.842 1107.96,227.546 1107.96,228.074C1107.61,229.658 1106.73,230.01 1107.96,231.242C1105.14,232.474 1108.49,234.586 1105.49,235.29C1106.2,238.458 1104.09,239.338 1104.61,242.506C1103.38,243.034 1102.5,243.738 1101.97,244.97C1103.03,244.97 1104.09,245.146 1103.56,246.554C1100.74,245.674 1102.5,249.546 1101.97,251.306C1102.5,251.482 1103.56,251.306 1103.56,252.186L1101.97,252.186C1100.92,254.826 1102.5,256.41 1101.27,256.938C1101.44,256.762 1099.51,255.178 1099.51,256.938C1102.5,257.114 1097.92,260.458 1100.39,260.106C1100.04,259.578 1101.44,259.226 1101.27,260.106C1101.27,260.106 1099.68,260.81 1099.51,260.986C1098.98,261.338 1101.27,261.162 1101.27,261.866C1100.92,262.746 1099.86,262.042 1099.51,262.394C1098.81,263.45 1100.92,266.09 1099.51,266.442C1098.63,266.09 1098.45,266.794 1098.45,267.498C1096.52,270.49 1098.1,272.25 1097.05,274.714C1100.92,274.538 1095.29,276.122 1096.87,276.122C1097.92,276.122 1097.4,276.474 1097.75,277.002C1098.63,277.882 1099.33,279.466 1101.27,279.994C1101.27,279.642 1101.8,279.29 1101.97,279.994C1102.15,280.874 1101.97,281.754 1102.85,281.754C1104.96,280.698 1101.27,279.466 1103.56,278.586C1103.56,280.874 1107.25,282.458 1103.56,281.05C1104.09,284.57 1105.67,282.106 1107.96,283.338C1108.31,282.458 1108.84,281.578 1109.72,281.05C1109.72,282.106 1111.48,280.874 1113.24,281.05C1114.12,281.05 1116.4,281.754 1116.58,282.634C1115.53,282.986 1114.64,283.338 1113.77,284.218C1115.53,283.866 1115.7,285.098 1117.46,284.922C1118.52,282.986 1116.93,282.458 1118.16,281.754C1118.69,282.81 1119.22,283.514 1119.75,284.218C1119.92,283.338 1124.33,284.394 1125.2,284.922C1125.2,284.218 1125.2,283.338 1126.09,283.338C1125.56,279.818 1126.26,278.41 1126.79,277.706C1126.79,277.882 1127.85,276.474 1127.67,276.826C1128.02,275.946 1126.79,274.89 1126.79,274.538C1126.96,274.362 1128.37,274.538 1128.55,274.538C1129.43,273.13 1128.37,270.49 1129.43,269.61C1128.2,269.434 1126.44,269.786 1126.79,268.026C1128.9,269.962 1128.73,266.442 1131.19,266.442C1129.61,264.506 1131.37,264.154 1131.19,263.098C1131.01,263.098 1129.43,263.274 1129.43,263.098C1129.08,262.922 1129.61,261.162 1129.43,260.81C1131.01,260.81 1130.31,263.098 1132.77,262.57C1133.3,261.162 1132.42,259.578 1132.77,258.346C1132.95,258.17 1134.36,258.698 1134.53,258.346C1134.88,257.818 1134.36,256.586 1134.53,255.882C1134.53,255.706 1135.94,254.826 1136.12,254.298C1136.47,253.594 1135.77,252.01 1137,252.01C1137.53,250.426 1134.53,248.666 1137,247.962C1137.35,248.49 1137,249.546 1137.88,249.546C1137.88,246.026 1140.69,245.146 1141.4,242.33C1140.34,242.154 1139.64,241.274 1139.64,239.866C1140.52,239.866 1140.69,240.57 1141.4,240.746C1141.57,239.866 1141.57,238.81 1142.98,239.162C1143.33,235.994 1142.81,234.41 1142.1,230.362C1144.39,230.538 1143.86,227.546 1144.57,225.61C1144.74,225.258 1145.97,225.082 1146.33,224.906C1146.68,224.202 1145.97,222.97 1146.33,222.442C1146.5,221.914 1147.2,222.09 1147.03,220.858C1147.03,220.506 1144.92,220.858 1145.44,220.154ZM1124.33,280.698C1124.5,280.522 1118.16,279.29 1118.16,279.466C1117.99,278.058 1126.26,278.938 1124.33,280.698ZM1097.75,143.418C1096.34,140.074 1101.09,143.066 1100.92,140.954C1102.85,140.954 1099.68,144.122 1097.75,143.418ZM1179.06,128.634C1178.18,130.218 1176.95,132.154 1175.19,130.57C1175.72,129.338 1177.3,128.634 1179.06,128.634ZM1113.77,277.002C1113.41,278.41 1113.06,276.474 1113.24,275.418C1112.53,275.242 1112.36,275.77 1112.36,276.122C1109.72,275.418 1113.41,274.186 1112.36,272.074C1113.59,272.954 1113.24,275.594 1113.77,277.002ZM1124.85,136.906C1124.15,136.378 1127.32,136.202 1127.85,136.026L1127.85,135.322C1131.37,135.674 1126.09,138.138 1124.85,136.906ZM1095.29,268.906C1094.58,272.074 1095.81,272.954 1096.16,271.37C1096.34,270.842 1095.99,266.794 1095.29,268.906ZM1179.94,128.634C1181,128.458 1181.17,131.626 1178.18,131.274C1178.71,130.922 1179.59,128.634 1179.94,128.634ZM1115.7,285.626C1110.95,285.626 1117.64,288.09 1117.46,285.626L1115.7,285.626ZM1202.12,129.69C1201.06,128.986 1200.18,128.282 1200.53,126.698C1201.59,127.226 1202.47,127.93 1202.12,129.69ZM1119.22,197.098C1119.22,197.45 1119.05,197.626 1119.05,197.802L1118.69,197.802L1119.22,197.098ZM1119.05,201.322C1118.52,201.85 1118.16,201.674 1117.99,201.498L1119.05,201.322ZM1150.02,209.594C1150.02,209.594 1150.2,209.418 1150.2,209.242C1150.02,209.242 1150.02,209.418 1150.02,209.418L1150.02,209.594Z" style="fill:rgb(255,0,41);fill-rule:nonzero;"/>
        <path d="M1267.24,150.81C1265.83,152.042 1264.07,150.81 1261.61,150.81C1260.37,150.986 1259.32,152.042 1258.44,152.042C1259.14,152.042 1258.26,150.986 1257.91,150.81C1255.97,150.458 1253.33,153.45 1255.62,153.098C1258.09,149.93 1255.27,155.034 1254.21,155.21L1254.39,154.154C1254.04,153.626 1252.63,153.098 1252.63,154.154C1253.16,155.21 1254.04,156.09 1254.92,157.146C1253.51,159.434 1256.33,162.074 1257.03,159.434C1255.97,159.786 1254.57,156.266 1257.03,156.266C1257.03,158.378 1258.26,162.602 1260.37,158.202C1259.49,158.202 1258.44,158.202 1258.61,157.146C1260.02,157.322 1262.13,156.97 1262.49,158.202C1258.44,159.258 1260.37,162.074 1258.26,163.482C1258.26,162.25 1257.91,161.194 1256.85,160.49C1257.03,163.306 1254.74,162.426 1253.68,163.482C1254.04,160.842 1255.62,161.546 1254.39,159.434C1252.81,159.082 1251.75,161.018 1251.57,159.434C1251.75,158.202 1252.45,158.202 1252.81,157.146C1251.75,157.146 1252.28,155.562 1251.57,155.21C1251.05,155.738 1250.87,156.618 1250.34,156.266C1250.16,157.322 1248.58,158.026 1249.99,158.202C1249.99,157.85 1250.87,157.146 1251.05,158.202C1249.11,161.898 1251.92,160.842 1251.75,162.602L1248.23,162.602C1246.64,164.714 1248.4,166.298 1243.83,165.77C1243.48,167.53 1242.6,168.41 1241.37,168.762C1240.49,170.522 1241.54,174.57 1239.43,174.218C1239.78,168.586 1239.78,172.458 1238.2,174.218C1238.02,174.746 1234.68,175.098 1234.33,176.154C1231.51,174.57 1229.05,180.202 1231.33,177.21C1233.8,177.034 1236.09,177.034 1234.5,180.554C1233.44,180.378 1232.74,178.442 1231.68,180.554C1232.21,180.554 1232.39,181.258 1231.51,181.434C1231.51,180.202 1230.28,180.906 1229.57,181.434C1229.57,180.202 1229.57,179.146 1227.99,179.322C1226.4,184.426 1231.16,182.138 1231.16,183.546C1228.87,185.306 1226.4,183.018 1225.35,184.602C1227.64,185.658 1223.06,187.594 1221.12,186.714C1220.07,190.058 1223.24,189.53 1222.88,191.994C1221.12,189.53 1220.6,193.05 1218.66,194.106C1219.19,192.698 1217.96,194.106 1217.96,194.106C1217.08,194.106 1217.25,193.05 1217.08,193.05C1215.32,192.698 1216.9,194.986 1216.73,195.162C1215.85,195.866 1213.73,194.458 1213.56,196.218C1216.2,197.274 1209.68,197.45 1210.92,201.498C1209.68,201.498 1209.86,200.618 1209.16,200.442C1208.81,202.554 1204.23,204.842 1206.16,205.546C1206.69,204.49 1208.45,203.258 1208.28,204.49C1205.81,204.666 1205.99,209.594 1204.23,206.778C1202.64,209.242 1207.4,209.946 1204.58,210.826C1203.17,210.826 1203.88,209.066 1203,208.89C1202.29,210.122 1201.41,211.178 1200.36,211.882C1200.01,207.482 1200.18,201.146 1200.18,198.33C1200.01,196.922 1199.48,196.042 1199.65,195.162C1199.3,191.818 1198.95,193.226 1197.54,189.882C1197.37,189.002 1197.54,187.77 1197.54,186.714C1197.01,186.362 1195.78,186.01 1195.78,185.658C1195.25,184.954 1195.78,183.194 1195.25,182.49C1194.73,181.962 1192.96,181.962 1192.61,181.434C1191.73,180.906 1191.73,180.026 1191.03,179.322C1189.8,178.266 1186.81,178.266 1185.75,177.21C1183.81,175.802 1183.46,177.034 1181,177.21C1179.41,177.386 1180.29,175.978 1179.06,177.21C1176.95,179.322 1170.44,174.57 1173.25,178.266C1173.61,178.97 1171.32,178.266 1170.09,179.322C1169.91,179.85 1168.68,179.146 1168.15,179.322C1167.8,179.498 1167.27,181.082 1166.92,181.434C1166.04,182.138 1164.45,181.434 1164.81,183.546C1166.57,183.194 1166.21,184.954 1167.09,185.658C1167.62,184.426 1168.85,184.426 1170.26,184.602C1167.8,186.89 1170.26,185.658 1170.61,187.77C1169.2,188.474 1170.44,189.002 1169.2,189.882C1168.5,190.586 1169.73,191.818 1169.91,191.994C1171.85,194.106 1164.98,204.842 1168.33,205.546C1169.03,203.962 1169.73,205.546 1169.91,206.778C1169.38,206.778 1168.68,207.658 1168.68,208.89C1167.8,208.89 1167.62,208.01 1167.09,207.834C1165.51,213.114 1165.51,219.274 1163.92,225.61C1163.4,227.018 1162.52,227.018 1162.34,228.778C1161.29,234.586 1160.58,241.626 1160.4,244.618C1160.23,246.202 1159.17,245.498 1160.05,246.73C1160.05,246.906 1159.88,248.314 1159.88,248.842C1160.05,251.482 1159.17,252.186 1160.05,252.714C1160.23,253.066 1159.7,254.65 1159.7,255.178C1159.7,260.986 1159.53,255.53 1161.29,255.178C1161.46,258.346 1159.53,257.994 1159.35,261.514C1161.29,264.154 1161.81,268.378 1165.16,269.962C1164.28,274.186 1169.2,273.13 1167.62,278.058C1168.68,277.706 1169.03,278.938 1169.38,279.114C1169.73,279.466 1171.67,279.994 1172.02,280.17C1172.02,280.522 1171.49,282.282 1171.67,282.282C1172.37,282.986 1175.89,281.578 1176.25,282.282C1176.25,282.81 1175.89,284.394 1175.89,284.394C1180.47,286.154 1186.98,285.274 1190.5,283.338C1191.2,281.05 1192.79,280.17 1193.85,279.114C1194.37,278.938 1194.02,277.53 1194.2,277.002C1195.25,276.474 1196.66,275.946 1197.72,275.242C1198.07,274.362 1198.42,271.194 1199.3,269.962C1200.01,269.082 1201.94,268.554 1202.64,267.85C1202.12,263.978 1205.11,263.098 1205.64,262.57C1206.52,260.81 1205.81,260.458 1207.05,259.05C1207.4,259.05 1207.05,257.642 1207.22,257.29C1207.75,256.938 1208.28,257.29 1208.28,257.29C1208.81,256.762 1208.45,255.354 1208.81,255.178C1209.16,254.474 1210.57,253.594 1211.09,252.714C1211.62,252.362 1212.85,251.482 1213.38,250.954C1213.91,250.074 1213.2,248.666 1213.91,247.786C1214.26,247.258 1215.67,246.202 1216.02,245.674C1216.73,244.97 1217.96,244.09 1218.31,243.562C1218.84,242.858 1218.49,241.274 1219.01,240.394C1219.19,239.866 1220.77,238.81 1221.3,238.282C1221.48,237.754 1223.59,236.522 1223.59,236.17C1223.94,235.466 1223.59,233.882 1224.12,233.002C1225.53,231.066 1229.05,230.362 1228.16,226.842C1230.63,225.962 1230.63,224.026 1231.68,222.618C1232.04,221.914 1233.44,221.738 1233.8,221.562C1234.33,220.682 1235.03,218.57 1235.38,218.218L1234.33,218.218C1233.97,217.69 1235.56,217.162 1235.56,217.162C1235.03,217.514 1235.91,218.746 1236.09,218.218C1236.96,217.338 1236.96,214.522 1237.67,214.17C1238.2,213.994 1239.61,214.346 1239.78,214.17C1240.84,212.938 1240.66,211.178 1241.72,209.946C1242.42,208.538 1244.71,208.01 1245.94,206.778C1246.12,206.426 1245.94,205.018 1246.29,204.49C1247.88,202.73 1251.05,202.378 1251.05,199.386C1253.16,199.386 1256.85,195.162 1254.92,194.106C1254.39,194.986 1251.4,198.682 1251.57,196.218C1253.33,196.57 1253.51,193.05 1256.15,193.05C1256.33,193.05 1256.5,194.986 1257.56,194.106C1257.91,193.93 1257.73,192.346 1257.91,191.994C1258.09,191.818 1259.85,191.114 1260.02,190.938C1261.08,189.882 1261.78,188.122 1263.37,187.77C1263.89,185.658 1263.19,185.658 1264.07,184.602C1263.54,184.954 1265.48,186.538 1266.01,184.602C1266.18,183.37 1266.71,184.25 1267.24,183.546C1267.41,183.194 1268.29,180.554 1268.64,180.554C1268.82,180.202 1270.4,180.554 1270.58,180.554C1271.64,178.97 1271.99,176.33 1272.34,175.098C1276.21,175.626 1274.63,171.05 1276.04,170.874L1279.03,170.874C1280.26,167.706 1278.85,167.178 1277.97,165.77C1279.03,163.482 1279.38,161.546 1279.03,159.434C1281.67,159.962 1278.33,155.21 1278.33,158.202C1279.03,158.378 1279.38,158.378 1279.03,159.434C1277.62,160.138 1275.33,161.37 1274.81,161.546C1270.58,162.602 1275.33,159.434 1275.16,159.434C1274.63,158.026 1268.64,158.026 1273.22,155.21C1274.63,155.21 1275.33,159.434 1276.04,155.21C1275.68,153.45 1273.22,153.45 1271.81,152.042C1271.29,153.45 1270.4,154.506 1269.35,155.21C1270.93,149.754 1266.18,155.21 1267.24,150.81ZM1273.22,165.77C1271.81,168.762 1271.46,164.538 1269.35,165.77C1269.88,163.306 1272.69,165.418 1273.22,165.77ZM1273.4,169.818C1273.75,170.698 1269,173.162 1270.4,170.874C1270.58,170.698 1272.87,168.938 1273.4,169.818ZM1243.83,175.098C1244.01,175.274 1245.06,173.162 1245.06,173.162C1245.41,172.986 1245.41,171.93 1245.41,171.93C1248.93,171.402 1244.71,176.858 1243.83,175.098ZM1225.88,190.938C1225.17,191.818 1225,191.818 1225,190.938C1225,190.762 1224.12,190.938 1224.12,190.938C1223.41,189.706 1225.7,188.122 1226.23,188.826C1227.11,189.53 1225.17,190.058 1225.17,189.882C1225.17,190.586 1225.53,191.29 1225.88,190.938ZM1222.36,195.162C1223.77,194.106 1224.64,191.994 1227.46,193.05C1227.29,194.106 1226.23,193.93 1225.35,194.106C1223.94,194.458 1224.12,197.45 1221.3,196.218C1221.3,194.282 1222.36,194.106 1222.36,195.162ZM1215.32,197.274C1215.67,196.042 1217.43,196.57 1217.78,195.162C1219.19,195.514 1216.37,197.098 1218.13,197.274C1223.06,197.45 1216.9,199.034 1215.32,197.274ZM1215.85,200.442C1215.49,201.674 1214.61,200.794 1214.79,200.442C1213.73,200.266 1213.2,200.618 1212.5,201.498C1209.86,200.794 1214.44,199.738 1214.26,198.33C1214.96,198.506 1214.61,200.442 1215.85,200.442ZM1215.67,206.778C1214.79,208.714 1214.61,205.898 1214.96,204.49C1215.67,202.554 1215.85,205.37 1215.67,206.778ZM1209.68,208.89C1208.63,210.122 1207.92,209.946 1207.57,208.89C1207.4,208.538 1206.34,207.834 1206.87,206.778C1208.28,204.666 1208.63,209.242 1207.75,207.834C1207.75,207.834 1208.81,209.594 1209.68,208.89Z" style="fill:rgb(255,0,41);fill-rule:nonzero;"/>
    </g>
</svg>
